<?xml version="1.0" encoding="UTF-8"?>
<svg xmlns="http://www.w3.org/2000/svg" xmlns:xlink="http://www.w3.org/1999/xlink" width="504pt" height="504pt" viewBox="0 0 504 504" version="1.1">
<defs>
<clipPath id="clip1">
  <path d="M 8.21875 5.480469 L 499 5.480469 L 499 496 L 8.21875 496 Z "/>
</clipPath>
</defs>
<g id="surface165">
<rect x="0" y="0" width="504" height="504" style="fill:rgb(100%,100%,100%);fill-opacity:1;stroke:none;"/>
<rect x="0" y="0" width="504" height="504" style="fill:rgb(100%,100%,100%);fill-opacity:1;stroke:none;"/>
<path style="fill:none;stroke-width:1.066978;stroke-linecap:round;stroke-linejoin:round;stroke:rgb(100%,100%,100%);stroke-opacity:1;stroke-miterlimit:10;" d="M 0 504 L 504 504 L 504 0 L 0 0 Z "/>
<g clip-path="url(#clip1)" clip-rule="nonzero">
<path style=" stroke:none;fill-rule:nonzero;fill:rgb(100%,100%,100%);fill-opacity:1;" d="M 8.21875 495.78125 L 498.519531 495.78125 L 498.519531 5.480469 L 8.21875 5.480469 Z "/>
</g>
<path style="fill:none;stroke-width:1.066978;stroke-linecap:butt;stroke-linejoin:round;stroke:rgb(20%,20%,20%);stroke-opacity:1;stroke-miterlimit:10;" d="M 49.078125 278.488281 L 49.078125 278.488281 "/>
<path style="fill:none;stroke-width:1.066978;stroke-linecap:butt;stroke-linejoin:round;stroke:rgb(20%,20%,20%);stroke-opacity:1;stroke-miterlimit:10;" d="M 49.078125 306.347656 L 49.078125 320.273438 "/>
<path style="fill-rule:nonzero;fill:rgb(100%,100%,83.137255%);fill-opacity:1;stroke-width:1.066978;stroke-linecap:round;stroke-linejoin:round;stroke:rgb(20%,20%,20%);stroke-opacity:1;stroke-miterlimit:10;" d="M 23.542969 278.488281 L 23.542969 306.347656 L 74.613281 306.347656 L 74.613281 278.488281 Z "/>
<path style="fill:none;stroke-width:2.133957;stroke-linecap:butt;stroke-linejoin:round;stroke:rgb(20%,20%,20%);stroke-opacity:1;stroke-miterlimit:10;" d="M 23.542969 292.417969 L 74.613281 292.417969 "/>
<path style="fill-rule:nonzero;fill:rgb(20%,20%,20%);fill-opacity:1;stroke-width:0.708661;stroke-linecap:round;stroke-linejoin:round;stroke:rgb(20%,20%,20%);stroke-opacity:1;stroke-miterlimit:10;" d="M 119.128906 153.128906 C 119.128906 155.734375 115.21875 155.734375 115.21875 153.128906 C 115.21875 150.519531 119.128906 150.519531 119.128906 153.128906 "/>
<path style="fill-rule:nonzero;fill:rgb(20%,20%,20%);fill-opacity:1;stroke-width:0.708661;stroke-linecap:round;stroke-linejoin:round;stroke:rgb(20%,20%,20%);stroke-opacity:1;stroke-miterlimit:10;" d="M 119.128906 125.269531 C 119.128906 127.875 115.21875 127.875 115.21875 125.269531 C 115.21875 122.664062 119.128906 122.664062 119.128906 125.269531 "/>
<path style="fill-rule:nonzero;fill:rgb(20%,20%,20%);fill-opacity:1;stroke-width:0.708661;stroke-linecap:round;stroke-linejoin:round;stroke:rgb(20%,20%,20%);stroke-opacity:1;stroke-miterlimit:10;" d="M 119.128906 153.128906 C 119.128906 155.734375 115.21875 155.734375 115.21875 153.128906 C 115.21875 150.519531 119.128906 150.519531 119.128906 153.128906 "/>
<path style="fill-rule:nonzero;fill:rgb(20%,20%,20%);fill-opacity:1;stroke-width:0.708661;stroke-linecap:round;stroke-linejoin:round;stroke:rgb(20%,20%,20%);stroke-opacity:1;stroke-miterlimit:10;" d="M 119.128906 27.765625 C 119.128906 30.371094 115.21875 30.371094 115.21875 27.765625 C 115.21875 25.160156 119.128906 25.160156 119.128906 27.765625 "/>
<path style="fill:none;stroke-width:1.066978;stroke-linecap:butt;stroke-linejoin:round;stroke:rgb(20%,20%,20%);stroke-opacity:1;stroke-miterlimit:10;" d="M 117.175781 236.699219 L 117.175781 180.984375 "/>
<path style="fill:none;stroke-width:1.066978;stroke-linecap:butt;stroke-linejoin:round;stroke:rgb(20%,20%,20%);stroke-opacity:1;stroke-miterlimit:10;" d="M 117.175781 278.488281 L 117.175781 320.273438 "/>
<path style="fill-rule:nonzero;fill:rgb(99.607843%,89.019608%,56.862745%);fill-opacity:1;stroke-width:1.066978;stroke-linecap:round;stroke-linejoin:round;stroke:rgb(20%,20%,20%);stroke-opacity:1;stroke-miterlimit:10;" d="M 91.636719 236.699219 L 91.636719 278.488281 L 142.710938 278.488281 L 142.710938 236.699219 Z "/>
<path style="fill:none;stroke-width:2.133957;stroke-linecap:butt;stroke-linejoin:round;stroke:rgb(20%,20%,20%);stroke-opacity:1;stroke-miterlimit:10;" d="M 91.636719 264.558594 L 142.710938 264.558594 "/>
<path style="fill:none;stroke-width:1.066978;stroke-linecap:butt;stroke-linejoin:round;stroke:rgb(20%,20%,20%);stroke-opacity:1;stroke-miterlimit:10;" d="M 185.273438 236.699219 L 185.273438 194.914062 "/>
<path style="fill:none;stroke-width:1.066978;stroke-linecap:butt;stroke-linejoin:round;stroke:rgb(20%,20%,20%);stroke-opacity:1;stroke-miterlimit:10;" d="M 185.273438 278.488281 L 185.273438 320.273438 "/>
<path style="fill-rule:nonzero;fill:rgb(99.607843%,76.862745%,30.980392%);fill-opacity:1;stroke-width:1.066978;stroke-linecap:round;stroke-linejoin:round;stroke:rgb(20%,20%,20%);stroke-opacity:1;stroke-miterlimit:10;" d="M 159.734375 236.699219 L 159.734375 278.488281 L 210.808594 278.488281 L 210.808594 236.699219 Z "/>
<path style="fill:none;stroke-width:2.133957;stroke-linecap:butt;stroke-linejoin:round;stroke:rgb(20%,20%,20%);stroke-opacity:1;stroke-miterlimit:10;" d="M 159.734375 264.558594 L 210.808594 264.558594 "/>
<path style="fill-rule:nonzero;fill:rgb(20%,20%,20%);fill-opacity:1;stroke-width:0.708661;stroke-linecap:round;stroke-linejoin:round;stroke:rgb(20%,20%,20%);stroke-opacity:1;stroke-miterlimit:10;" d="M 255.324219 403.847656 C 255.324219 406.457031 251.414062 406.457031 251.414062 403.847656 C 251.414062 401.242188 255.324219 401.242188 255.324219 403.847656 "/>
<path style="fill:none;stroke-width:1.066978;stroke-linecap:butt;stroke-linejoin:round;stroke:rgb(20%,20%,20%);stroke-opacity:1;stroke-miterlimit:10;" d="M 253.371094 306.347656 L 253.371094 306.347656 "/>
<path style="fill:none;stroke-width:1.066978;stroke-linecap:butt;stroke-linejoin:round;stroke:rgb(20%,20%,20%);stroke-opacity:1;stroke-miterlimit:10;" d="M 253.371094 334.203125 L 253.371094 348.132812 "/>
<path style="fill-rule:nonzero;fill:rgb(99.607843%,60%,16.078431%);fill-opacity:1;stroke-width:1.066978;stroke-linecap:round;stroke-linejoin:round;stroke:rgb(20%,20%,20%);stroke-opacity:1;stroke-miterlimit:10;" d="M 227.832031 306.347656 L 227.832031 334.203125 L 278.90625 334.203125 L 278.90625 306.347656 Z "/>
<path style="fill:none;stroke-width:2.133957;stroke-linecap:butt;stroke-linejoin:round;stroke:rgb(20%,20%,20%);stroke-opacity:1;stroke-miterlimit:10;" d="M 227.832031 320.273438 L 278.90625 320.273438 "/>
<path style="fill-rule:nonzero;fill:rgb(20%,20%,20%);fill-opacity:1;stroke-width:0.708661;stroke-linecap:round;stroke-linejoin:round;stroke:rgb(20%,20%,20%);stroke-opacity:1;stroke-miterlimit:10;" d="M 323.421875 473.496094 C 323.421875 476.101562 319.511719 476.101562 319.511719 473.496094 C 319.511719 470.886719 323.421875 470.886719 323.421875 473.496094 "/>
<path style="fill-rule:nonzero;fill:rgb(20%,20%,20%);fill-opacity:1;stroke-width:0.708661;stroke-linecap:round;stroke-linejoin:round;stroke:rgb(20%,20%,20%);stroke-opacity:1;stroke-miterlimit:10;" d="M 323.421875 473.496094 C 323.421875 476.101562 319.511719 476.101562 319.511719 473.496094 C 319.511719 470.886719 323.421875 470.886719 323.421875 473.496094 "/>
<path style="fill-rule:nonzero;fill:rgb(20%,20%,20%);fill-opacity:1;stroke-width:0.708661;stroke-linecap:round;stroke-linejoin:round;stroke:rgb(20%,20%,20%);stroke-opacity:1;stroke-miterlimit:10;" d="M 323.421875 473.496094 C 323.421875 476.101562 319.511719 476.101562 319.511719 473.496094 C 319.511719 470.886719 323.421875 470.886719 323.421875 473.496094 "/>
<path style="fill-rule:nonzero;fill:rgb(20%,20%,20%);fill-opacity:1;stroke-width:0.708661;stroke-linecap:round;stroke-linejoin:round;stroke:rgb(20%,20%,20%);stroke-opacity:1;stroke-miterlimit:10;" d="M 323.421875 334.203125 C 323.421875 336.8125 319.511719 336.8125 319.511719 334.203125 C 319.511719 331.597656 323.421875 331.597656 323.421875 334.203125 "/>
<path style="fill:none;stroke-width:1.066978;stroke-linecap:butt;stroke-linejoin:round;stroke:rgb(20%,20%,20%);stroke-opacity:1;stroke-miterlimit:10;" d="M 321.46875 389.921875 L 321.46875 362.0625 "/>
<path style="fill:none;stroke-width:1.066978;stroke-linecap:butt;stroke-linejoin:round;stroke:rgb(20%,20%,20%);stroke-opacity:1;stroke-miterlimit:10;" d="M 321.46875 417.777344 L 321.46875 431.707031 "/>
<path style="fill-rule:nonzero;fill:rgb(92.54902%,43.921569%,7.843137%);fill-opacity:1;stroke-width:1.066978;stroke-linecap:round;stroke-linejoin:round;stroke:rgb(20%,20%,20%);stroke-opacity:1;stroke-miterlimit:10;" d="M 295.929688 389.921875 L 295.929688 417.777344 L 347.003906 417.777344 L 347.003906 389.921875 Z "/>
<path style="fill:none;stroke-width:2.133957;stroke-linecap:butt;stroke-linejoin:round;stroke:rgb(20%,20%,20%);stroke-opacity:1;stroke-miterlimit:10;" d="M 295.929688 403.847656 L 347.003906 403.847656 "/>
<path style="fill-rule:nonzero;fill:rgb(20%,20%,20%);fill-opacity:1;stroke-width:0.708661;stroke-linecap:round;stroke-linejoin:round;stroke:rgb(20%,20%,20%);stroke-opacity:1;stroke-miterlimit:10;" d="M 391.519531 27.765625 C 391.519531 30.371094 387.609375 30.371094 387.609375 27.765625 C 387.609375 25.160156 391.519531 25.160156 391.519531 27.765625 "/>
<path style="fill-rule:nonzero;fill:rgb(20%,20%,20%);fill-opacity:1;stroke-width:0.708661;stroke-linecap:round;stroke-linejoin:round;stroke:rgb(20%,20%,20%);stroke-opacity:1;stroke-miterlimit:10;" d="M 391.519531 69.554688 C 391.519531 72.160156 387.609375 72.160156 387.609375 69.554688 C 387.609375 66.945312 391.519531 66.945312 391.519531 69.554688 "/>
<path style="fill:none;stroke-width:1.066978;stroke-linecap:butt;stroke-linejoin:round;stroke:rgb(20%,20%,20%);stroke-opacity:1;stroke-miterlimit:10;" d="M 389.566406 215.808594 L 389.566406 139.199219 "/>
<path style="fill:none;stroke-width:1.066978;stroke-linecap:butt;stroke-linejoin:round;stroke:rgb(20%,20%,20%);stroke-opacity:1;stroke-miterlimit:10;" d="M 389.566406 299.382812 L 389.566406 362.0625 "/>
<path style="fill-rule:nonzero;fill:rgb(80%,29.803922%,0.784314%);fill-opacity:1;stroke-width:1.066978;stroke-linecap:round;stroke-linejoin:round;stroke:rgb(20%,20%,20%);stroke-opacity:1;stroke-miterlimit:10;" d="M 364.027344 215.808594 L 364.027344 299.382812 L 415.101562 299.382812 L 415.101562 215.808594 Z "/>
<path style="fill:none;stroke-width:2.133957;stroke-linecap:butt;stroke-linejoin:round;stroke:rgb(20%,20%,20%);stroke-opacity:1;stroke-miterlimit:10;" d="M 364.027344 278.488281 L 415.101562 278.488281 "/>
<path style="fill-rule:nonzero;fill:rgb(20%,20%,20%);fill-opacity:1;stroke-width:0.708661;stroke-linecap:round;stroke-linejoin:round;stroke:rgb(20%,20%,20%);stroke-opacity:1;stroke-miterlimit:10;" d="M 459.617188 473.496094 C 459.617188 476.101562 455.707031 476.101562 455.707031 473.496094 C 455.707031 470.886719 459.617188 470.886719 459.617188 473.496094 "/>
<path style="fill-rule:nonzero;fill:rgb(20%,20%,20%);fill-opacity:1;stroke-width:0.708661;stroke-linecap:round;stroke-linejoin:round;stroke:rgb(20%,20%,20%);stroke-opacity:1;stroke-miterlimit:10;" d="M 459.617188 473.496094 C 459.617188 476.101562 455.707031 476.101562 455.707031 473.496094 C 455.707031 470.886719 459.617188 470.886719 459.617188 473.496094 "/>
<path style="fill-rule:nonzero;fill:rgb(20%,20%,20%);fill-opacity:1;stroke-width:0.708661;stroke-linecap:round;stroke-linejoin:round;stroke:rgb(20%,20%,20%);stroke-opacity:1;stroke-miterlimit:10;" d="M 459.617188 292.417969 C 459.617188 295.023438 455.707031 295.023438 455.707031 292.417969 C 455.707031 289.8125 459.617188 289.8125 459.617188 292.417969 "/>
<path style="fill-rule:nonzero;fill:rgb(20%,20%,20%);fill-opacity:1;stroke-width:0.708661;stroke-linecap:round;stroke-linejoin:round;stroke:rgb(20%,20%,20%);stroke-opacity:1;stroke-miterlimit:10;" d="M 459.617188 306.347656 C 459.617188 308.953125 455.707031 308.953125 455.707031 306.347656 C 455.707031 303.738281 459.617188 303.738281 459.617188 306.347656 "/>
<path style="fill-rule:nonzero;fill:rgb(20%,20%,20%);fill-opacity:1;stroke-width:0.708661;stroke-linecap:round;stroke-linejoin:round;stroke:rgb(20%,20%,20%);stroke-opacity:1;stroke-miterlimit:10;" d="M 459.617188 264.558594 C 459.617188 267.164062 455.707031 267.164062 455.707031 264.558594 C 455.707031 261.953125 459.617188 261.953125 459.617188 264.558594 "/>
<path style="fill-rule:nonzero;fill:rgb(20%,20%,20%);fill-opacity:1;stroke-width:0.708661;stroke-linecap:round;stroke-linejoin:round;stroke:rgb(20%,20%,20%);stroke-opacity:1;stroke-miterlimit:10;" d="M 459.617188 292.417969 C 459.617188 295.023438 455.707031 295.023438 455.707031 292.417969 C 455.707031 289.8125 459.617188 289.8125 459.617188 292.417969 "/>
<path style="fill-rule:nonzero;fill:rgb(20%,20%,20%);fill-opacity:1;stroke-width:0.708661;stroke-linecap:round;stroke-linejoin:round;stroke:rgb(20%,20%,20%);stroke-opacity:1;stroke-miterlimit:10;" d="M 459.617188 278.488281 C 459.617188 281.09375 455.707031 281.09375 455.707031 278.488281 C 455.707031 275.882812 459.617188 275.882812 459.617188 278.488281 "/>
<path style="fill-rule:nonzero;fill:rgb(20%,20%,20%);fill-opacity:1;stroke-width:0.708661;stroke-linecap:round;stroke-linejoin:round;stroke:rgb(20%,20%,20%);stroke-opacity:1;stroke-miterlimit:10;" d="M 459.617188 320.273438 C 459.617188 322.882812 455.707031 322.882812 455.707031 320.273438 C 455.707031 317.667969 459.617188 317.667969 459.617188 320.273438 "/>
<path style="fill:none;stroke-width:1.066978;stroke-linecap:butt;stroke-linejoin:round;stroke:rgb(20%,20%,20%);stroke-opacity:1;stroke-miterlimit:10;" d="M 457.660156 375.992188 L 457.660156 334.203125 "/>
<path style="fill:none;stroke-width:1.066978;stroke-linecap:butt;stroke-linejoin:round;stroke:rgb(20%,20%,20%);stroke-opacity:1;stroke-miterlimit:10;" d="M 457.660156 403.847656 L 457.660156 445.636719 "/>
<path style="fill-rule:nonzero;fill:rgb(54.901961%,17.647059%,1.568627%);fill-opacity:1;stroke-width:1.066978;stroke-linecap:round;stroke-linejoin:round;stroke:rgb(20%,20%,20%);stroke-opacity:1;stroke-miterlimit:10;" d="M 432.125 375.992188 L 432.125 403.847656 L 483.199219 403.847656 L 483.199219 375.992188 Z "/>
<path style="fill:none;stroke-width:2.133957;stroke-linecap:butt;stroke-linejoin:round;stroke:rgb(20%,20%,20%);stroke-opacity:1;stroke-miterlimit:10;" d="M 432.125 396.886719 L 483.199219 396.886719 "/>
</g>
</svg>
